<?xml version="1.0" encoding="UTF-8"?>
<svg id="Capa_1" xmlns="http://www.w3.org/2000/svg" version="1.1" viewBox="0 0 512 288">
  <!-- Generator: Adobe Illustrator 29.0.0, SVG Export Plug-In . SVG Version: 2.1.0 Build 186)  -->
  <defs>
    <style>
      .st0 {
        fill: none;
      }

      .st1 {
        fill: #0277ae;
      }

      .st2 {
        fill: #ff6b6b;
      }
    </style>
  </defs>
  <g>
    <path class="st0" d="M228.3,145.8c-2.3,8.1-3.5,16.6-3.5,25.4,0,52.4,43.2,95.1,96.4,95.1,53.1,0,96.4-42.7,96.4-95.1,0-9.6-1.5-18.9-4.2-27.7-5.3-5.7-19.1-16.2-50.6-19.9l-7.3-23.8-4.9,22.2s-74.5-16.1-122.3,23.8ZM368.3,160.1c0,7-5.8,12.7-12.9,12.7-7.1,0-12.9-5.7-12.9-12.7,0-7,5.8-12.7,12.9-12.7,7.1,0,12.9,5.7,12.9,12.7ZM266.3,200.3h109.6c-4.5,25.1-27.3,45.6-54.8,45.6-27.5,0-50.3-20.5-54.8-45.6ZM298.7,160.1c0,7-5.8,12.7-12.9,12.7-7.1,0-12.9-5.7-12.9-12.7,0-7,5.8-12.7,12.9-12.7,7.1,0,12.9,5.7,12.9,12.7Z"/>
    <path class="st1" d="M210,171.2c0,60.5,49.8,109.6,111.1,109.6,61.3,0,111.1-49.2,111.1-109.6,0-43.7-26.1-81.5-63.7-99.1,14.2-25.3,43.8-10.4,49.2,18.6,11.6,62.4,50.6,60.2,69.4,50.2,22.1-11.7,23.8-28.6,23.8-28.6-12.9,12.5-41.1,7.3-39.4-24.6,2.6-47.9-30.7-92.3-84.7-77.9-39.9,10.7-45.8,39.2-46.1,53.5-6.4-1.1-13-1.8-19.7-1.8-61.3,0-111.1,49.2-111.1,109.6ZM228.3,145.8c-3,2.5-5.9,5.2-8.7,8.2,2.8-3,5.7-5.7,8.7-8.2,47.8-39.9,122.3-23.8,122.3-23.8l4.9-22.2,7.3,23.8c31.5,3.8,45.3,14.2,50.6,19.9,2.7,8.8,4.2,18,4.2,27.7,0,52.4-43.2,95.1-96.4,95.1-53.1,0-96.4-42.7-96.4-95.1,0-8.8,1.2-17.3,3.5-25.4Z"/>
    <path class="st1" d="M321.1,245.9c-27.5,0-50.3-20.5-54.8-45.6h109.6c-4.5,25.1-27.3,45.6-54.8,45.6Z"/>
    <ellipse class="st1" cx="355.5" cy="160.1" rx="12.9" ry="12.7"/>
    <ellipse class="st1" cx="285.8" cy="160.1" rx="12.9" ry="12.7"/>
  </g>
  <g>
    <path class="st0" d="M16.7,158.5c-.6,4.2-.9,8.4-.9,12.7,0,52.4,43.2,95.1,96.4,95.1,53.1,0,96.4-42.7,96.4-95.1,0-7.7-1-15.2-2.7-22.4-24.5-4.2-96.3-19.5-129-60.9,0,0-20,50.3-60.2,70.6ZM90.2,160.1c0,7-5.8,12.7-12.9,12.7-7.1,0-12.9-5.7-12.9-12.7,0-7,5.8-12.7,12.9-12.7,7.1,0,12.9,5.7,12.9,12.7ZM159.9,160.1c0,7-5.8,12.7-12.9,12.7-7.1,0-12.9-5.7-12.9-12.7,0-7,5.8-12.7,12.9-12.7,7.1,0,12.9,5.7,12.9,12.7ZM57.4,200.3h109.6c-4.5,25.1-27.3,45.6-54.8,45.6-27.5,0-50.3-20.5-54.8-45.6Z"/>
    <path class="st2" d="M1,171.2c0,60.5,49.8,109.6,111.1,109.6,61.3,0,111.1-49.2,111.1-109.6,0-60.5-49.9-109.6-111.1-109.6-10.7,0-21,1.5-30.8,4.3-11.8-18.6,2.5-36.1,2.5-36.1-16.7,9.8-18.6,23.9-17.3,33.9-4.4-3-11-5.2-20.1-2.6,0,0,11.3,4.1,15.4,12.4C25.8,91.7,1,128.6,1,171.2ZM15.8,171.2c0-4.3.3-8.6.9-12.7-2.5,1.3-5.1,2.4-7.8,3.5,2.7-1,5.3-2.2,7.8-3.5,40.2-20.3,60.2-70.6,60.2-70.6,32.7,41.3,104.5,56.7,129,60.9,1.8,7.2,2.7,14.7,2.7,22.4,0,52.4-43.2,95.1-96.4,95.1-53.1,0-96.4-42.7-96.4-95.1Z"/>
    <path class="st2" d="M112.2,245.9c-27.5,0-50.3-20.5-54.8-45.6h109.6c-4.5,25.1-27.3,45.6-54.8,45.6Z"/>
    <ellipse class="st2" cx="147" cy="160.1" rx="12.9" ry="12.7"/>
    <ellipse class="st2" cx="77.3" cy="160.1" rx="12.9" ry="12.7"/>
  </g>
</svg>